<mxfile host="app.diagrams.net" agent="Mozilla/5.0 (Windows NT 10.0; Win64; x64) AppleWebKit/537.36 (KHTML, like Gecko) Chrome/136.0.0.0 Safari/537.36 Edg/136.0.0.0" version="26.2.14">
  <diagram name="第 1 页" id="jgRNHoxB9AdhTqiI0w7r">
    <mxGraphModel dx="1500" dy="826" grid="1" gridSize="10" guides="1" tooltips="1" connect="1" arrows="1" fold="1" page="1" pageScale="1" pageWidth="827" pageHeight="1169" math="0" shadow="0">
      <root>
        <mxCell id="0" />
        <mxCell id="1" parent="0" />
        <mxCell id="ZZ4-zC_S_AHzPEqWO-xr-1" value="" style="rounded=0;whiteSpace=wrap;html=1;" vertex="1" parent="1">
          <mxGeometry x="130" y="320" width="480" height="270" as="geometry" />
        </mxCell>
        <mxCell id="ZZ4-zC_S_AHzPEqWO-xr-2" value="&lt;font style=&quot;font-size: 16px;&quot;&gt;S&lt;/font&gt;&lt;div&gt;&lt;font style=&quot;font-size: 16px;&quot;&gt;T&lt;/font&gt;&lt;/div&gt;&lt;div&gt;&lt;font style=&quot;font-size: 16px;&quot;&gt;M&lt;/font&gt;&lt;/div&gt;&lt;div&gt;&lt;font style=&quot;font-size: 16px;&quot;&gt;3&lt;/font&gt;&lt;/div&gt;&lt;div&gt;&lt;font style=&quot;font-size: 16px;&quot;&gt;2&lt;/font&gt;&lt;/div&gt;&lt;div&gt;&lt;font style=&quot;font-size: 16px;&quot;&gt;单&lt;/font&gt;&lt;/div&gt;&lt;div&gt;&lt;font style=&quot;font-size: 16px;&quot;&gt;片&lt;/font&gt;&lt;/div&gt;&lt;div&gt;&lt;font style=&quot;font-size: 16px;&quot;&gt;机&lt;/font&gt;&lt;/div&gt;" style="rounded=0;whiteSpace=wrap;html=1;" vertex="1" parent="1">
          <mxGeometry x="440" y="350" width="110" height="210" as="geometry" />
        </mxCell>
        <mxCell id="ZZ4-zC_S_AHzPEqWO-xr-7" value="&lt;font style=&quot;font-size: 16px;&quot;&gt;DHT11&lt;/font&gt;&lt;div&gt;&lt;span style=&quot;font-size: 16px;&quot;&gt;&lt;br&gt;&lt;/span&gt;&lt;div&gt;&lt;font style=&quot;font-size: 16px;&quot;&gt;温湿度&lt;/font&gt;&lt;/div&gt;&lt;div&gt;&lt;font style=&quot;font-size: 16px;&quot;&gt;&lt;br&gt;&lt;/font&gt;&lt;/div&gt;&lt;div&gt;&lt;font style=&quot;font-size: 16px;&quot;&gt;传感器&lt;/font&gt;&lt;/div&gt;&lt;/div&gt;" style="rounded=0;whiteSpace=wrap;html=1;" vertex="1" parent="1">
          <mxGeometry x="180" y="352.5" width="110" height="205" as="geometry" />
        </mxCell>
        <mxCell id="ZZ4-zC_S_AHzPEqWO-xr-8" value="" style="rounded=0;whiteSpace=wrap;html=1;" vertex="1" parent="1">
          <mxGeometry x="270" y="400" width="20" height="20" as="geometry" />
        </mxCell>
        <mxCell id="ZZ4-zC_S_AHzPEqWO-xr-9" value="" style="rounded=0;whiteSpace=wrap;html=1;direction=south;" vertex="1" parent="1">
          <mxGeometry x="270" y="450" width="20" height="20" as="geometry" />
        </mxCell>
        <mxCell id="ZZ4-zC_S_AHzPEqWO-xr-10" value="" style="rounded=0;whiteSpace=wrap;html=1;" vertex="1" parent="1">
          <mxGeometry x="270" y="500" width="20" height="20" as="geometry" />
        </mxCell>
        <mxCell id="ZZ4-zC_S_AHzPEqWO-xr-14" value="" style="rounded=0;whiteSpace=wrap;html=1;" vertex="1" parent="1">
          <mxGeometry x="440" y="400" width="20" height="20" as="geometry" />
        </mxCell>
        <mxCell id="ZZ4-zC_S_AHzPEqWO-xr-15" value="" style="rounded=0;whiteSpace=wrap;html=1;" vertex="1" parent="1">
          <mxGeometry x="440" y="450" width="20" height="20" as="geometry" />
        </mxCell>
        <mxCell id="ZZ4-zC_S_AHzPEqWO-xr-16" value="" style="rounded=0;whiteSpace=wrap;html=1;" vertex="1" parent="1">
          <mxGeometry x="440" y="500" width="20" height="20" as="geometry" />
        </mxCell>
        <mxCell id="ZZ4-zC_S_AHzPEqWO-xr-17" value="" style="endArrow=none;html=1;rounded=0;exitX=1;exitY=0.5;exitDx=0;exitDy=0;entryX=0;entryY=0.5;entryDx=0;entryDy=0;" edge="1" parent="1" source="ZZ4-zC_S_AHzPEqWO-xr-8" target="ZZ4-zC_S_AHzPEqWO-xr-14">
          <mxGeometry width="50" height="50" relative="1" as="geometry">
            <mxPoint x="390" y="440" as="sourcePoint" />
            <mxPoint x="440" y="390" as="targetPoint" />
          </mxGeometry>
        </mxCell>
        <mxCell id="ZZ4-zC_S_AHzPEqWO-xr-18" value="" style="endArrow=none;html=1;rounded=0;exitX=1;exitY=0.5;exitDx=0;exitDy=0;entryX=0;entryY=0.5;entryDx=0;entryDy=0;" edge="1" parent="1">
          <mxGeometry width="50" height="50" relative="1" as="geometry">
            <mxPoint x="290" y="459.5" as="sourcePoint" />
            <mxPoint x="440" y="459.5" as="targetPoint" />
          </mxGeometry>
        </mxCell>
        <mxCell id="ZZ4-zC_S_AHzPEqWO-xr-19" value="" style="endArrow=none;html=1;rounded=0;exitX=1;exitY=0.5;exitDx=0;exitDy=0;entryX=0;entryY=0.5;entryDx=0;entryDy=0;" edge="1" parent="1">
          <mxGeometry width="50" height="50" relative="1" as="geometry">
            <mxPoint x="290" y="509.5" as="sourcePoint" />
            <mxPoint x="440" y="509.5" as="targetPoint" />
          </mxGeometry>
        </mxCell>
        <mxCell id="ZZ4-zC_S_AHzPEqWO-xr-20" value="&lt;font style=&quot;font-size: 16px;&quot;&gt;VCC&lt;/font&gt;" style="text;html=1;align=center;verticalAlign=middle;whiteSpace=wrap;rounded=0;" vertex="1" parent="1">
          <mxGeometry x="284" y="381" width="60" height="30" as="geometry" />
        </mxCell>
        <mxCell id="ZZ4-zC_S_AHzPEqWO-xr-21" value="&lt;font style=&quot;font-size: 16px;&quot;&gt;&amp;nbsp; &amp;nbsp;DATA&lt;/font&gt;" style="text;html=1;align=center;verticalAlign=middle;whiteSpace=wrap;rounded=0;" vertex="1" parent="1">
          <mxGeometry x="282" y="432" width="60" height="30" as="geometry" />
        </mxCell>
        <mxCell id="ZZ4-zC_S_AHzPEqWO-xr-22" value="&lt;font style=&quot;font-size: 16px;&quot;&gt;GND&lt;/font&gt;" style="text;html=1;align=center;verticalAlign=middle;whiteSpace=wrap;rounded=0;" vertex="1" parent="1">
          <mxGeometry x="285" y="483" width="60" height="30" as="geometry" />
        </mxCell>
        <mxCell id="ZZ4-zC_S_AHzPEqWO-xr-23" value="&lt;span style=&quot;font-size: 16px;&quot;&gt;3V3&lt;/span&gt;" style="text;html=1;align=center;verticalAlign=middle;whiteSpace=wrap;rounded=0;" vertex="1" parent="1">
          <mxGeometry x="385" y="383" width="60" height="30" as="geometry" />
        </mxCell>
        <mxCell id="ZZ4-zC_S_AHzPEqWO-xr-24" value="&lt;font style=&quot;font-size: 16px;&quot;&gt;D4&lt;/font&gt;" style="text;html=1;align=center;verticalAlign=middle;whiteSpace=wrap;rounded=0;" vertex="1" parent="1">
          <mxGeometry x="386" y="433" width="60" height="30" as="geometry" />
        </mxCell>
        <mxCell id="ZZ4-zC_S_AHzPEqWO-xr-25" value="&lt;font style=&quot;font-size: 16px;&quot;&gt;GND&lt;/font&gt;" style="text;html=1;align=center;verticalAlign=middle;whiteSpace=wrap;rounded=0;" vertex="1" parent="1">
          <mxGeometry x="386" y="483" width="60" height="30" as="geometry" />
        </mxCell>
      </root>
    </mxGraphModel>
  </diagram>
</mxfile>
